<?xml version="1.0" standalone="no"?><!DOCTYPE svg PUBLIC "-//W3C//DTD SVG 1.1//EN" "http://www.w3.org/Graphics/SVG/1.1/DTD/svg11.dtd"><svg t="1731391592698" class="icon" viewBox="0 0 1024 1024" version="1.1" xmlns="http://www.w3.org/2000/svg" p-id="1421" xmlns:xlink="http://www.w3.org/1999/xlink" width="200" height="200"><path d="M512 959.9488a448.0512 448.0512 0 1 1 316.8768-764.8256A447.9488 447.9488 0 0 1 512 959.9488z m0-834.56a386.5088 386.5088 0 1 0 273.4592 113.0496A385.6384 385.6384 0 0 0 512 125.4912z" fill="#989898" p-id="1422"></path><path d="M512 707.84a71.168 71.168 0 0 1-50.5856-20.9408l-124.3136-124.3136a71.68 71.68 0 0 1 0-101.1712l124.3136-124.3136a71.68 71.68 0 0 1 101.1712 0l124.3136 124.3136a71.68 71.68 0 0 1 0 101.1712l-124.3136 124.3136a71.168 71.168 0 0 1-50.5856 20.9408z m0-320.0512L387.7888 512 512 636.2112 636.2624 512z" fill="#989898" p-id="1423"></path></svg>