<?xml version="1.0" standalone="no"?><!DOCTYPE svg PUBLIC "-//W3C//DTD SVG 1.1//EN" "http://www.w3.org/Graphics/SVG/1.1/DTD/svg11.dtd"><svg t="1731391634321" class="icon" viewBox="0 0 1024 1024" version="1.1" xmlns="http://www.w3.org/2000/svg" p-id="3996" xmlns:xlink="http://www.w3.org/1999/xlink" width="200" height="200"><path d="M750.3872 133.888a142.3872 142.3872 0 0 0-109.0048-36.2496l-417.792 40.0896A141.4144 141.4144 0 0 0 95.232 279.04v465.92a141.4144 141.4144 0 0 0 128.3584 141.312l417.792 40.0896c4.5056 0.4096 8.96 0.6144 13.4656 0.6144a141.824 141.824 0 0 0 141.9776-141.9264V238.9504a142.336 142.336 0 0 0-46.4384-105.0624z m-15.0016 651.1616A80.384 80.384 0 0 1 647.2192 865.28l-417.7408-40.0896A80.1792 80.1792 0 0 1 156.672 744.96v-465.92a80.1792 80.1792 0 0 1 72.8064-80.128L647.2192 158.72c2.6624-0.256 5.12-0.4096 7.936-0.4096a80.4352 80.4352 0 0 1 80.2304 80.5376z" fill="#989898" p-id="3997"></path><path d="M559.7184 453.4272l-159.744-92.16A67.6352 67.6352 0 0 0 298.5472 419.84v184.32a67.5328 67.5328 0 0 0 101.4784 58.5728l159.6928-92.16a67.6352 67.6352 0 0 0 0-117.1456z m-189.44 143.7696V426.8032L517.8368 512zM905.472 231.5776a30.72 30.72 0 0 0-30.72 30.72V773.12a30.72 30.72 0 0 0 61.44 0V262.2976a30.72 30.72 0 0 0-30.72-30.72z" fill="#989898" p-id="3998"></path></svg>