<?xml version="1.0" standalone="no"?><!DOCTYPE svg PUBLIC "-//W3C//DTD SVG 1.1//EN" "http://www.w3.org/Graphics/SVG/1.1/DTD/svg11.dtd"><svg t="1731391613015" class="icon" viewBox="0 0 1024 1024" version="1.1" xmlns="http://www.w3.org/2000/svg" p-id="2632" xmlns:xlink="http://www.w3.org/1999/xlink" width="200" height="200"><path d="M800.6144 915.2512H227.8912a164.1984 164.1984 0 0 1-163.84-163.84V272.128a164.1984 164.1984 0 0 1 163.84-163.84H363.52a169.4208 169.4208 0 0 1 101.2224 33.536l76.3904 57.4464a107.52 107.52 0 0 0 64.2048 21.4528h195.2768a164.1984 164.1984 0 0 1 163.84 163.84v366.4384a164.1984 164.1984 0 0 1-163.84 164.2496zM227.8912 169.5232a102.7072 102.7072 0 0 0-102.4 102.4v479.0784a102.7072 102.7072 0 0 0 102.4 102.4h572.7232a102.7072 102.7072 0 0 0 102.4-102.4V384.768a102.7072 102.7072 0 0 0-102.4-102.4h-195.2768a169.3184 169.3184 0 0 1-101.12-33.792L427.8272 190.9248A107.52 107.52 0 0 0 363.52 169.5232z" fill="#989898" p-id="2633"></path><path d="M763.6992 474.2656h-172.032a35.84 35.84 0 0 1 0-71.68h172.032a35.84 35.84 0 0 1 0 71.68z" fill="#989898" p-id="2634"></path></svg>