<?xml version="1.0" standalone="no"?><!DOCTYPE svg PUBLIC "-//W3C//DTD SVG 1.1//EN" "http://www.w3.org/Graphics/SVG/1.1/DTD/svg11.dtd"><svg t="1731391632397" class="icon" viewBox="0 0 1024 1024" version="1.1" xmlns="http://www.w3.org/2000/svg" p-id="3841" xmlns:xlink="http://www.w3.org/1999/xlink" width="200" height="200"><path d="M224.4608 950.1184a49.4592 49.4592 0 0 1-46.9504-64.8192c16.128-49.3568 15.36-72.2944 13.2608-77.8752a433.8688 433.8688 0 0 1-117.76-311.2448c6.5536-226.3552 189.44-412.672 416.3072-424.0896a438.4256 438.4256 0 0 1 461.568 459.8784 439.9104 439.9104 0 0 1-412.4672 413.7984 445.8496 445.8496 0 0 1-113.92-7.9872c-16.128-3.2256-75.5712-1.792-194.048 11.9808a44.6464 44.6464 0 0 1-5.9904 0.3584zM511.488 133.12q-9.5744 0-19.2 0.4608C296.96 143.36 139.8784 303.36 134.2976 497.92a372.8896 372.8896 0 0 0 102.0416 268.3392c13.312 14.08 27.648 41.8304 5.12 120.4224 102.4-11.4688 168.192-14.5408 195.1232-9.1136a386.0992 386.0992 0 0 0 98.2016 6.8608A376.0128 376.0128 0 0 0 511.488 133.12z m408.576 397.4144z" fill="#989898" p-id="3842"></path><path d="M280.7808 510.8224a50.688 50.4832 0 1 0 101.376 0 50.688 50.4832 0 1 0-101.376 0Z" fill="#989898" p-id="3843"></path><path d="M461.312 510.8224a50.688 50.4832 0 1 0 101.376 0 50.688 50.4832 0 1 0-101.376 0Z" fill="#989898" p-id="3844"></path><path d="M641.8432 510.8224a50.688 50.4832 0 1 0 101.376 0 50.688 50.4832 0 1 0-101.376 0Z" fill="#989898" p-id="3845"></path></svg>