<?xml version="1.0" standalone="no"?><!DOCTYPE svg PUBLIC "-//W3C//DTD SVG 1.1//EN" "http://www.w3.org/Graphics/SVG/1.1/DTD/svg11.dtd"><svg t="1731391585421" class="icon" viewBox="0 0 1024 1024" version="1.1" xmlns="http://www.w3.org/2000/svg" p-id="1115" xmlns:xlink="http://www.w3.org/1999/xlink" width="200" height="200"><path d="M769.3824 914.8928H254.6176a183.6544 183.6544 0 0 1-183.4496-183.4496V292.5568a183.6544 183.6544 0 0 1 183.4496-183.4496h514.7648a183.6544 183.6544 0 0 1 183.4496 183.4496v438.8864a183.6544 183.6544 0 0 1-183.4496 183.4496zM254.6176 170.5472A122.1632 122.1632 0 0 0 132.608 292.5568v438.8864a122.1632 122.1632 0 0 0 122.0096 122.0096h514.7648a122.1632 122.1632 0 0 0 122.0096-122.0096V292.5568a122.1632 122.1632 0 0 0-122.0096-122.0096z" fill="#989898" p-id="1116"></path><path d="M657.9712 415.8976h-291.84a35.84 35.84 0 0 1 0-71.68h291.84a35.84 35.84 0 0 1 0 71.68z" fill="#989898" p-id="1117"></path></svg>