<?xml version="1.0" standalone="no"?><!DOCTYPE svg PUBLIC "-//W3C//DTD SVG 1.1//EN" "http://www.w3.org/Graphics/SVG/1.1/DTD/svg11.dtd"><svg t="1731391605817" class="icon" viewBox="0 0 1024 1024" version="1.1" xmlns="http://www.w3.org/2000/svg" p-id="2177" xmlns:xlink="http://www.w3.org/1999/xlink" width="200" height="200"><path d="M788.1728 956.1088H235.8272a162.4576 162.4576 0 0 1-163.1232-161.3824V419.1744a161.28 161.28 0 0 1 66.56-129.9968l276.1216-200.8064a163.84 163.84 0 0 1 193.2288 0l276.1728 200.8064a161.28 161.28 0 0 1 66.56 129.9968v375.552a162.4576 162.4576 0 0 1-163.1744 161.3824zM512 118.3232A102.4 102.4 0 0 0 451.5328 138.24L175.3088 338.8416a99.8912 99.8912 0 0 0-40.96 80.3328v375.552a100.9152 100.9152 0 0 0 101.6832 99.9424h552.1408a100.9152 100.9152 0 0 0 101.6832-99.9424V419.1744a99.84 99.84 0 0 0-41.216-80.3328L572.4672 138.24A102.4 102.4 0 0 0 512 118.3232z" fill="#989898" p-id="2178"></path><path d="M506.88 724.2752a171.6224 171.6224 0 1 1 173.4144-171.6224A172.6976 172.6976 0 0 1 506.88 724.2752z m0-271.36a99.9424 99.9424 0 1 0 101.7344 99.8912A100.9152 100.9152 0 0 0 506.88 452.7616z" fill="#989898" p-id="2179"></path></svg>