<?xml version="1.0" standalone="no"?><!DOCTYPE svg PUBLIC "-//W3C//DTD SVG 1.1//EN" "http://www.w3.org/Graphics/SVG/1.1/DTD/svg11.dtd"><svg t="1731391630515" class="icon" viewBox="0 0 1024 1024" version="1.1" xmlns="http://www.w3.org/2000/svg" p-id="3688" xmlns:xlink="http://www.w3.org/1999/xlink" width="200" height="200"><path d="M922.7776 225.6384a35.84 35.84 0 0 0-0.3584-4.7104 165.888 165.888 0 0 0-165.7344-165.5296H267.3152a165.888 165.888 0 0 0-165.7344 165.6832v609.28a129.3824 129.3824 0 0 0 54.528 105.472 99.1744 99.1744 0 0 0 64.6656 23.9616h535.9104a165.888 165.888 0 0 0 165.7344-165.6832v-162.7648c0-4.0448 0.3584-8.0384 0.3584-12.1344z m-655.36-108.8h489.3696a104.3968 104.3968 0 0 1 104.2944 104.2432v408.1664a141.2096 141.2096 0 0 1-140.5952 130.9696h-499.712a98.9696 98.9696 0 0 0-57.7536 18.5856V221.0816a104.3968 104.3968 0 0 1 104.2944-104.2432z m489.3696 781.2608H231.0144a67.5328 67.5328 0 0 1-37.1712-11.1104 38.1952 38.1952 0 0 1 26.9312-65.3312h499.6096a201.6256 201.6256 0 0 0 140.5952-57.0368v29.2352a104.3968 104.3968 0 0 1-104.2944 104.2432z" fill="#989898" p-id="3689"></path><path d="M487.68 615.2192a195.2256 195.2256 0 0 0 91.5968-22.7328l42.496 46.6944a35.84 35.84 0 1 0 53.0432-48.2304l-39.2192-43.1104a196.352 196.352 0 1 0-147.9168 67.3792z m0-321.28a124.8256 124.8256 0 1 1-124.8256 124.7744 124.8768 124.8768 0 0 1 124.8256-124.7744z" fill="#989898" p-id="3690"></path></svg>