<?xml version="1.0" standalone="no"?><!DOCTYPE svg PUBLIC "-//W3C//DTD SVG 1.1//EN" "http://www.w3.org/Graphics/SVG/1.1/DTD/svg11.dtd"><svg t="1731391595664" class="icon" viewBox="0 0 1024 1024" version="1.1" xmlns="http://www.w3.org/2000/svg" p-id="1572" xmlns:xlink="http://www.w3.org/1999/xlink" width="200" height="200"><path d="M723.5072 943.0528h-368.64a240.64 240.64 0 0 1-240.64-240.64V264.5504A186.4704 186.4704 0 0 1 300.4928 78.336h368.64a240.64 240.64 0 0 1 240.64 240.64v438.016a186.4704 186.4704 0 0 1-186.2656 186.0608zM300.4928 139.776a124.928 124.928 0 0 0-124.8256 124.7744v438.0672a179.2 179.2 0 0 0 179.2 179.2h368.64a124.9792 124.9792 0 0 0 124.8256-124.8256V318.7712a179.2 179.2 0 0 0-179.2-179.2z" fill="#989898" p-id="1573"></path><path d="M563.6096 395.9808H346.3168a35.84 35.84 0 0 1 0-71.68h217.2928a35.84 35.84 0 1 1 0 71.68zM677.6832 663.8592H346.3168a35.84 35.84 0 0 1 0-71.68h331.3664a35.84 35.84 0 0 1 0 71.68z" fill="#989898" p-id="1574"></path></svg>