<?xml version="1.0" standalone="no"?><!DOCTYPE svg PUBLIC "-//W3C//DTD SVG 1.1//EN" "http://www.w3.org/Graphics/SVG/1.1/DTD/svg11.dtd"><svg t="1731391636674" class="icon" viewBox="0 0 1024 1024" version="1.1" xmlns="http://www.w3.org/2000/svg" p-id="4145" xmlns:xlink="http://www.w3.org/1999/xlink" width="200" height="200"><path d="M512 934.0416a69.8368 69.8368 0 0 1-49.664-20.48L343.04 793.9072a8.5504 8.5504 0 0 0-6.1952-2.6112H251.648a180.992 180.992 0 0 1-180.8384-180.7872V270.7968a180.992 180.992 0 0 1 180.8384-180.7872h520.704a180.992 180.992 0 0 1 180.8384 180.7872v339.712a180.992 180.992 0 0 1-180.8384 180.7872h-84.9408a8.5504 8.5504 0 0 0-6.1952 2.6112l-119.552 119.552a69.8368 69.8368 0 0 1-49.664 20.5824zM251.648 151.4496a119.5008 119.5008 0 0 0-119.3984 119.3472v339.712a119.5008 119.5008 0 0 0 119.3984 119.3472h84.9408a69.8368 69.8368 0 0 1 49.664 20.48l119.552 119.552a8.6528 8.6528 0 0 0 12.3904 0l119.552-119.552a69.8368 69.8368 0 0 1 49.664-20.48h84.9408a119.5008 119.5008 0 0 0 119.3984-119.3472V270.7968a119.5008 119.5008 0 0 0-119.3984-119.3472z" fill="#989898" p-id="4146"></path><path d="M677.9392 392.0384H346.0608a35.84 35.84 0 0 1 0-71.68h331.8784a35.84 35.84 0 1 1 0 71.68zM566.3744 578.2016h-220.16a35.84 35.84 0 0 1 0-71.68h220.16a35.84 35.84 0 0 1 0 71.68z" fill="#989898" p-id="4147"></path></svg>