<?xml version="1.0" standalone="no"?><!DOCTYPE svg PUBLIC "-//W3C//DTD SVG 1.1//EN" "http://www.w3.org/Graphics/SVG/1.1/DTD/svg11.dtd"><svg t="1731391610684" class="icon" viewBox="0 0 1024 1024" version="1.1" xmlns="http://www.w3.org/2000/svg" p-id="2479" xmlns:xlink="http://www.w3.org/1999/xlink" width="200" height="200"><path d="M512 962.56A448.1536 448.1536 0 0 1 195.072 197.4272a448.1536 448.1536 0 0 1 633.8048 0A448.1536 448.1536 0 0 1 512 962.56z m0-834.8672A386.7648 386.7648 0 1 0 785.408 240.64 384 384 0 0 0 512 127.5904z" fill="#989898" p-id="2480"></path><path d="M512 702.976a193.28 193.28 0 0 1-184.9344-135.2192 35.84 35.84 0 1 1 68.352-21.6576 122.3168 122.3168 0 0 0 233.0624 0 35.84 35.84 0 0 1 68.3008 22.2208A193.3312 193.3312 0 0 1 512 702.976z" fill="#989898" p-id="2481"></path></svg>