<?xml version="1.0" standalone="no"?><!DOCTYPE svg PUBLIC "-//W3C//DTD SVG 1.1//EN" "http://www.w3.org/Graphics/SVG/1.1/DTD/svg11.dtd"><svg t="1731391598517" class="icon" viewBox="0 0 1024 1024" version="1.1" xmlns="http://www.w3.org/2000/svg" p-id="1723" xmlns:xlink="http://www.w3.org/1999/xlink" width="200" height="200"><path d="M740.4544 124.6208h-24.2688V93.184a30.72 30.72 0 1 0-61.44 0v31.4368h-297.472V93.184a30.72 30.72 0 0 0-61.44 0v31.4368h-15.36A188.672 188.672 0 0 0 92.16 313.088v450.048a188.672 188.672 0 0 0 188.4672 188.4672h459.776a188.672 188.672 0 0 0 188.4672-188.4672v-450.048a188.672 188.672 0 0 0-188.416-188.4672z m127.0272 638.5152a127.1808 127.1808 0 0 1-127.0272 127.0272h-459.776A127.1808 127.1808 0 0 1 153.6 763.136v-450.048a127.1808 127.1808 0 0 1 127.0784-127.0272h15.36v38.912a30.72 30.72 0 0 0 61.44 0v-38.912h297.472v38.912a30.72 30.72 0 0 0 61.44 0v-38.912h24.2688a127.1808 127.1808 0 0 1 127.0272 127.0272z" fill="#989898" p-id="1724"></path><path d="M685.4656 434.5344h-358.912a35.84 35.84 0 0 0 0 71.68h358.912a35.84 35.84 0 0 0 0-71.68zM685.4656 626.3296h-358.912a35.84 35.84 0 1 0 0 71.68h358.912a35.84 35.84 0 0 0 0-71.68z" fill="#989898" p-id="1725"></path></svg>