<?xml version="1.0" standalone="no"?><!DOCTYPE svg PUBLIC "-//W3C//DTD SVG 1.1//EN" "http://www.w3.org/Graphics/SVG/1.1/DTD/svg11.dtd"><svg t="1731391622332" class="icon" viewBox="0 0 1024 1024" version="1.1" xmlns="http://www.w3.org/2000/svg" p-id="3234" xmlns:xlink="http://www.w3.org/1999/xlink" width="200" height="200"><path d="M433.9712 944.384a96.0512 96.0512 0 0 1-53.76-16.4864l-221.1328-148.9408a95.1808 95.1808 0 0 1-38.9632-102.8096l95.8464-370.3296-50.4832-117.76a67.0208 67.0208 0 0 1 61.44-93.44h413.8496a67.0208 67.0208 0 0 1 61.44 93.44l-50.4832 117.76 95.8464 370.3296a95.3344 95.3344 0 0 1-38.9632 102.8096l-220.8256 148.9408a96.1024 96.1024 0 0 1-53.8112 16.4864z m-206.8992-788.48a5.12 5.12 0 0 0-4.6592 2.5088 5.12 5.12 0 0 0-0.4608 5.12L276.48 291.2256a30.72 30.72 0 0 1 1.536 19.8144l-98.4576 380.4672a33.8944 33.8944 0 0 0 13.824 36.5056L414.72 876.9536a34.6112 34.6112 0 0 0 38.8608 0l221.1328-148.8896a33.8944 33.8944 0 0 0 13.8752-36.5056l-98.6624-380.5184a30.72 30.72 0 0 1 1.4848-19.8144L646.0416 163.84a5.12 5.12 0 0 0-0.4608-5.12 5.12 5.12 0 0 0-4.6592-2.5088z" fill="#989898" p-id="3235"></path><path d="M340.0192 536.4224a35.84 35.84 0 0 1-18.8416-66.56l157.6448-97.28a35.84 35.84 0 1 1 37.6832 61.0304l-157.696 97.28a35.84 35.84 0 0 1-18.7904 5.5296zM340.0192 705.024a35.84 35.84 0 0 1-18.8416-66.56l157.6448-97.28a35.84 35.84 0 1 1 37.6832 60.9792l-157.696 97.28a35.4816 35.4816 0 0 1-18.7904 5.5808zM832.1024 693.4016a30.72 30.72 0 0 1-28.416-42.3936l52.9408-129.4336a19.5584 19.5584 0 0 0-3.8912-20.736l-127.6416-133.888a30.72 30.72 0 0 1 44.4928-42.3936l127.5904 133.888a80.9472 80.9472 0 0 1 16.3328 86.3744l-52.9408 129.4848a30.72 30.72 0 0 1-28.4672 19.0976z" fill="#989898" p-id="3236"></path></svg>