<?xml version="1.0" standalone="no"?><!DOCTYPE svg PUBLIC "-//W3C//DTD SVG 1.1//EN" "http://www.w3.org/Graphics/SVG/1.1/DTD/svg11.dtd"><svg t="1731391603350" class="icon" viewBox="0 0 1024 1024" version="1.1" xmlns="http://www.w3.org/2000/svg" p-id="2025" xmlns:xlink="http://www.w3.org/1999/xlink" width="200" height="200"><path d="M512 962.56a448.1536 448.1536 0 1 1 448.1536-448.1536A448.6656 448.6656 0 0 1 512 962.56z m0-834.8672a386.7136 386.7136 0 1 0 386.7136 386.7136A387.1232 387.1232 0 0 0 512 127.5904z" fill="#989898" p-id="2026"></path><path d="M515.7376 704.5632a193.9968 193.9968 0 1 1 0-387.9424 35.84 35.84 0 1 1 0 71.68 122.3168 122.3168 0 1 0 122.2144 122.3168 35.84 35.84 0 0 1 71.68 0 193.8432 193.8432 0 0 1-193.8944 193.9968z" fill="#989898" p-id="2027"></path><path d="M512 550.144a35.84 35.84 0 0 1-25.6-60.928L644.8128 327.68a35.84 35.84 0 1 1 51.2 50.1248L537.6 539.392a35.84 35.84 0 0 1-25.6 10.752z" fill="#989898" p-id="2028"></path></svg>