<?xml version="1.0" standalone="no"?><!DOCTYPE svg PUBLIC "-//W3C//DTD SVG 1.1//EN" "http://www.w3.org/Graphics/SVG/1.1/DTD/svg11.dtd"><svg t="1731391619457" class="icon" viewBox="0 0 1024 1024" version="1.1" xmlns="http://www.w3.org/2000/svg" p-id="3083" xmlns:xlink="http://www.w3.org/1999/xlink" width="200" height="200"><path d="M788.48 247.1936h-26.88V184.0128a114.4832 114.4832 0 0 0-114.3296-114.3296H378.112a114.4832 114.4832 0 0 0-114.3808 114.3296v63.1808h-26.8288a154.0608 154.0608 0 0 0-153.9072 153.9072v381.696a154.0608 154.0608 0 0 0 153.9072 153.856H788.48a154.0608 154.0608 0 0 0 153.9072-153.856V401.1008A154.0608 154.0608 0 0 0 788.48 247.1936zM325.1712 184.0128a52.992 52.992 0 0 1 52.9408-52.8896h269.1584a52.9408 52.9408 0 0 1 52.8896 52.8896v63.1808H325.1712z m555.776 599.04a92.5696 92.5696 0 0 1-92.4672 92.16H236.9024a92.5696 92.5696 0 0 1-92.4672-92.416V401.1008a92.5696 92.5696 0 0 1 92.4672-92.4672H788.48a92.5696 92.5696 0 0 1 92.4672 92.4672z" fill="#989898" p-id="3084"></path><path d="M353.8432 463.9744a35.84 35.84 0 0 0-35.84 35.84v177.5616a35.84 35.84 0 0 0 71.68 0V499.8144a35.84 35.84 0 0 0-35.84-35.84zM680.0896 463.9744a35.84 35.84 0 0 0-35.84 35.84v177.5616a35.84 35.84 0 1 0 71.68 0V499.8144a35.84 35.84 0 0 0-35.84-35.84z" fill="#989898" p-id="3085"></path></svg>