<?xml version="1.0" standalone="no"?><!DOCTYPE svg PUBLIC "-//W3C//DTD SVG 1.1//EN" "http://www.w3.org/Graphics/SVG/1.1/DTD/svg11.dtd"><svg t="1731391589557" class="icon" viewBox="0 0 1024 1024" version="1.1" xmlns="http://www.w3.org/2000/svg" p-id="1268" xmlns:xlink="http://www.w3.org/1999/xlink" width="200" height="200"><path d="M762.88 930.9184H261.12a179.968 179.968 0 0 1-179.7632-179.7632v-481.792A179.968 179.968 0 0 1 261.12 89.5488h501.76a179.968 179.968 0 0 1 179.7632 179.8144v481.792A179.968 179.968 0 0 1 762.88 930.9184zM261.12 150.9888a118.4768 118.4768 0 0 0-118.1696 118.3744v481.792A118.4768 118.4768 0 0 0 261.12 869.4784h501.76a118.4768 118.4768 0 0 0 118.3232-118.3232v-481.792A118.4768 118.4768 0 0 0 762.88 150.9888z" fill="#989898" p-id="1269"></path><path d="M512 568.7808a218.6752 218.6752 0 0 1-218.4704-218.4192 35.84 35.84 0 1 1 71.68 0 146.7392 146.7392 0 0 0 293.4784 0 35.84 35.84 0 0 1 71.68 0A218.6752 218.6752 0 0 1 512 568.7808z" fill="#989898" p-id="1270"></path></svg>