<?xml version="1.0" standalone="no"?><!DOCTYPE svg PUBLIC "-//W3C//DTD SVG 1.1//EN" "http://www.w3.org/Graphics/SVG/1.1/DTD/svg11.dtd"><svg t="1731391608532" class="icon" viewBox="0 0 1024 1024" version="1.1" xmlns="http://www.w3.org/2000/svg" p-id="2328" xmlns:xlink="http://www.w3.org/1999/xlink" width="200" height="200"><path d="M965.2224 363.52l-70.656-193.9456a136.6016 136.6016 0 0 0-128-89.6H268.4928a135.5776 135.5776 0 0 0-126.6176 86.016L64.3072 361.1648a134.0416 134.0416 0 0 0-5.12 84.1216 183.04 183.04 0 0 0 61.9008 94.4128v262.144C120.8832 881.8688 179.2 947.2 250.88 947.2h526.1824c71.68 0 130.0992-65.1264 130.0992-145.152v-262.4512a183.3984 183.3984 0 0 0 62.1056-95.7952 133.9904 133.9904 0 0 0-4.0448-80.2816z m-119.5008 438.2208c0 46.08-30.72 83.712-68.6592 83.712H250.88c-37.8368 0-68.6592-37.5808-68.6592-83.712v-229.376A183.3984 183.3984 0 0 0 375.04 517.12a183.4496 183.4496 0 0 0 277.76 0 183.4496 183.4496 0 0 0 192.9216 55.4496z m64.1024-373.76a122.2656 122.2656 0 0 1-229.1712 19.8144 30.72 30.72 0 0 0-55.7568 0 122.2144 122.2144 0 0 1-222.0032 0 30.72 30.72 0 0 0-55.7568 0 122.2656 122.2656 0 0 1-228.9152-18.8416 72.1408 72.1408 0 0 1 3.2256-44.9536l77.5168-195.328a74.3424 74.3424 0 0 1 69.5296-47.1552h498.0736a75.008 75.008 0 0 1 70.2976 49.2032l70.6048 193.8944a72.192 72.192 0 0 1 2.3552 43.52z" fill="#989898" p-id="2329"></path><path d="M669.184 288.0512H358.8608a35.84 35.84 0 1 0 0 71.68h310.3232a35.84 35.84 0 0 0 0-71.68z" fill="#989898" p-id="2330"></path></svg>