<?xml version="1.0" standalone="no"?><!DOCTYPE svg PUBLIC "-//W3C//DTD SVG 1.1//EN" "http://www.w3.org/Graphics/SVG/1.1/DTD/svg11.dtd"><svg t="1731391625225" class="icon" viewBox="0 0 1024 1024" version="1.1" xmlns="http://www.w3.org/2000/svg" p-id="3385" xmlns:xlink="http://www.w3.org/1999/xlink" width="200" height="200"><path d="M778.8544 78.336H257.536a156.8256 156.8256 0 0 0-156.672 156.672v551.3216a156.8256 156.8256 0 0 0 156.672 156.7232h521.3184a156.8768 156.8768 0 0 0 156.672-156.7232V235.008a156.8768 156.8768 0 0 0-156.672-156.672zM162.304 786.3296V235.008a95.3344 95.3344 0 0 1 95.232-95.232h18.2784v741.8368H257.536a95.3344 95.3344 0 0 1-95.232-95.2832z m711.68 0a95.3344 95.3344 0 0 1-95.232 95.2832H347.4944V139.776h431.36a95.3344 95.3344 0 0 1 95.232 95.232z" fill="#989898" p-id="3386"></path></svg>