<?xml version="1.0" standalone="no"?><!DOCTYPE svg PUBLIC "-//W3C//DTD SVG 1.1//EN" "http://www.w3.org/Graphics/SVG/1.1/DTD/svg11.dtd"><svg t="1731391617408" class="icon" viewBox="0 0 1024 1024" version="1.1" xmlns="http://www.w3.org/2000/svg" p-id="2934" xmlns:xlink="http://www.w3.org/1999/xlink" width="200" height="200"><path d="M823.4496 200.2944a441.6 441.6 0 0 0-334.2336-128.3584c-226.9696 11.4688-409.6 197.7344-416.3584 424.0896a434.0736 434.0736 0 0 0 117.76 311.296c1.8944 5.5296 2.8672 28.4672-13.2608 77.8752a49.408 49.408 0 0 0 46.9504 64.768 55.7056 55.7056 0 0 0 5.8368-0.3072c118.4768-13.824 177.92-15.36 194.048-11.9808a446.0032 446.0032 0 0 0 113.92 7.936 437.0944 437.0944 0 0 0 285.184-745.3184z m65.8944 328.3968a378.3168 378.3168 0 0 1-354.6624 355.584 381.4912 381.4912 0 0 1-98.2016-6.8608c-26.9312-5.4272-92.5184-2.3552-195.1232 9.1136 22.6304-78.592 8.2944-106.2912-5.12-120.4224a372.736 372.736 0 0 1-102.0416-268.288C139.8784 303.2576 296.96 143.36 492.288 133.12c6.4-0.3584 12.8-0.512 19.2-0.512a376.832 376.832 0 0 1 377.856 395.8784z" fill="#989898" p-id="2935"></path><path d="M703.6928 404.992h-45.2096l8.6016-38.2464a35.84 35.84 0 1 0-69.888-15.7184l-12.1856 53.9648H490.1376l8.6016-38.2464a35.84 35.84 0 1 0-69.9392-15.7184L416.6656 404.992h-57.856a35.84 35.84 0 0 0 0 71.68h41.6768l-16.2304 72.2432H311.5008a35.84 35.84 0 0 0 0 71.68H368.128l-7.4752 33.1776a35.84 35.84 0 0 0 27.0848 42.8544 34.4576 34.4576 0 0 0 7.8848 0.8704 35.84 35.84 0 0 0 34.9184-27.9552l11.0592-48.9472h94.8736l-7.4752 33.1776a35.84 35.84 0 0 0 27.0848 42.8544 35.2256 35.2256 0 0 0 7.936 0.8704 35.84 35.84 0 0 0 34.9184-27.9552l11.008-48.9472h46.4896a35.84 35.84 0 0 0 0-71.68h-30.3616l16.2816-72.2432h61.44a35.84 35.84 0 0 0 0-71.68z m-151.0912 143.9232H457.728l16.2816-72.2432h94.8736z" fill="#989898" p-id="2936"></path></svg>